<?xml version="1.0" standalone="no"?>
<!DOCTYPE svg PUBLIC "-//W3C//DTD SVG 20010904//EN"
 "http://www.w3.org/TR/2001/REC-SVG-20010904/DTD/svg10.dtd">
<svg version="1.0" xmlns="http://www.w3.org/2000/svg"
 width="512.000000pt" height="512.000000pt" viewBox="0 0 512.000000 512.000000"
 preserveAspectRatio="xMidYMid meet">

<g transform="translate(0.000000,512.000000) scale(0.100000,-0.100000)"
fill="#000000" stroke="none">
<path d="M2362 5110 c-776 -61 -1489 -479 -1927 -1130 -220 -328 -352 -677
-411 -1085 -24 -165 -24 -505 0 -670 81 -559 311 -1034 695 -1437 l103 -108
750 0 749 0 172 -166 c169 -163 172 -165 207 -159 19 4 41 12 49 18 12 9 13 9
7 0 -10 -17 5 -16 40 2 16 8 36 15 45 15 8 0 19 4 25 8 5 5 34 14 64 21 30 8
61 18 68 24 8 6 30 12 49 14 20 1 41 7 47 11 6 5 20 12 30 16 17 6 17 4 5 -11
-11 -15 -10 -15 9 1 12 11 22 16 22 11 0 -4 6 -2 13 4 8 6 22 12 33 14 24 5
54 16 76 28 25 13 41 11 32 -4 -6 -9 -5 -9 7 0 8 6 43 17 79 23 36 7 70 16 75
21 6 4 28 10 50 14 22 4 46 13 54 19 11 8 13 8 7 -1 -4 -7 -3 -13 3 -13 5 0
12 4 15 9 4 5 29 12 56 16 27 4 52 10 55 15 3 4 29 11 60 15 30 3 57 11 60 16
4 5 11 9 16 9 6 0 7 -6 3 -12 -5 -8 0 -7 11 2 22 18 5 17 240 19 l190 1 95 97
c394 404 639 916 711 1488 21 162 16 493 -10 663 -41 270 -117 514 -237 757
-378 771 -1116 1300 -1964 1409 -152 20 -388 27 -528 16z m933 -1299 c210 -70
374 -210 465 -396 77 -158 74 -127 78 -826 3 -678 2 -697 -51 -829 -41 -101
-88 -171 -172 -255 -113 -113 -232 -179 -383 -210 -98 -21 -1246 -21 -1344 0
-151 31 -270 97 -383 210 -113 113 -179 232 -210 383 -21 98 -21 1246 0 1344
31 151 97 270 210 383 84 84 154 131 256 172 127 51 137 52 824 50 l640 -2 70
-24z"/>
<path d="M1909 3562 c-122 -32 -232 -118 -303 -235 -64 -108 -66 -130 -66
-766 0 -378 4 -588 11 -623 39 -187 200 -348 387 -387 73 -15 1171 -15 1244 0
187 39 348 200 387 387 15 73 15 1171 0 1244 -39 187 -200 348 -387 387 -35 7
-245 11 -630 10 -512 0 -584 -2 -643 -17z m1406 -202 c17 -10 41 -38 54 -60
60 -108 -19 -240 -143 -240 -148 0 -219 175 -113 278 19 18 47 37 63 42 39 12
101 3 139 -20z m-591 -160 c119 -30 209 -82 301 -175 133 -132 195 -281 195
-465 0 -116 -17 -188 -72 -300 -58 -119 -169 -230 -288 -288 -112 -55 -184
-72 -300 -72 -116 0 -188 17 -300 72 -119 58 -230 169 -288 288 -23 47 -49
112 -57 145 -19 76 -19 234 0 310 59 233 247 425 477 485 99 26 232 26 332 0z"/>
<path d="M2443 2946 c-104 -34 -204 -123 -251 -224 -24 -50 -27 -69 -27 -162
0 -99 2 -110 32 -171 40 -80 120 -159 200 -197 52 -24 70 -27 163 -27 99 0
110 2 171 32 80 40 159 120 197 200 24 52 27 70 27 163 0 99 -2 110 -32 171
-40 81 -121 160 -200 197 -70 32 -210 41 -280 18z"/>
</g>
</svg>
